<svg xmlns="http://www.w3.org/2000/svg" viewBox="0 0 60 40"><rect width="60" height="40" fill="#00008b"/><g transform="scale(.45)"><rect width="60" height="40" fill="#012169"/><path stroke="#fff" stroke-width="9" d="M0 0l60 40M60 0L0 40"/><path stroke="#c8102e" stroke-width="4" d="M0 0l60 40M60 0L0 40"/><path stroke="#fff" stroke-width="13" d="M30 0v40M0 20h60"/><path stroke="#c8102e" stroke-width="7" d="M30 0v40M0 20h60"/></g><g fill="#fff"><path d="M15 25l1.3 3.5 3.7.2-2.9 2.3 1 3.6-3.1-2-3.1 2 1-3.6-2.9-2.3 3.7-.2z"/><circle cx="44" cy="10" r="2"/><circle cx="50" cy="19" r="2"/><circle cx="42" cy="29" r="2"/><circle cx="52" cy="33" r="2"/></g></svg>
