<svg xmlns="http://www.w3.org/2000/svg" viewBox="0 0 60 40"><rect width="60" height="40" fill="#fff"/><path stroke="#b22234" stroke-width="4" d="M0 2h60M0 8h60M0 14h60M0 20h60M0 26h60M0 32h60M0 38h60"/><rect width="27" height="22" fill="#3c3b6e"/><g fill="#fff"><circle cx="4" cy="4" r="1"/><circle cx="9" cy="4" r="1"/><circle cx="14" cy="4" r="1"/><circle cx="19" cy="4" r="1"/><circle cx="24" cy="4" r="1"/><circle cx="6.5" cy="9" r="1"/><circle cx="11.5" cy="9" r="1"/><circle cx="16.5" cy="9" r="1"/><circle cx="21.5" cy="9" r="1"/><circle cx="4" cy="14" r="1"/><circle cx="9" cy="14" r="1"/><circle cx="14" cy="14" r="1"/><circle cx="19" cy="14" r="1"/><circle cx="24" cy="14" r="1"/></g></svg>
